# xmcd
#
# Track frame offsets:
#	150
#	13063
#	24091
#	39108
#	51798
#	62385
#	73910
#	87416
#	99170
#	109248
#	121416
#	134375
#
# Disc length: 2028 seconds
#
# Revision: 1
# Processed by: cddbd v1.5.2PL0 Copyright (c) Steve Scherf et al.
# Submitted via: audiograbber 1.83.01
#
DISCID=9407ea0c
DTITLE=DOMINGUINHOS - VEREDAS NORDESTINAS
DYEAR=1900
DGENRE=FORRÓ
TTITLE0=MAIS QUE UM AMIGO
TTITLE1=FEITO FOGO
TTITLE2=CANTA LUIZ
TTITLE3=O JUAZEIRO E A SOMBRA
TTITLE4=POR ESSA PAIXÃO
TTITLE5=MINHA PEQUENA
TTITLE6=VÁ COM DEUS
TTITLE7=GARIMPEIRO REAL
TTITLE8=FORRÓ AMADUROU
TTITLE9=PRA DESABAFAR
TTITLE10=DE VOLTA PRO ACONCHEGO
TTITLE11=PUXA E ENCOLHE(GENIVAL LACERDA)
EXTD=
EXTT0=
EXTT1=
EXTT2=
EXTT3=
EXTT4=
EXTT5=
EXTT6=
EXTT7=
EXTT8=
EXTT9=
EXTT10=
EXTT11=
PLAYORDER=
